<svg width="1080" height="282" viewBox="0 0 1080 282" fill="none" xmlns="http://www.w3.org/2000/svg">
<path d="M337.025 227.781L403.253 54.1507H428.801L494.781 227.781H471.713L453.358 180.901H377.705L359.349 227.781H337.025ZM384.154 161.306H446.909L415.407 77.7149L384.154 161.306ZM573.213 101.279V121.122H563.043C550.972 121.122 542.291 125.174 536.999 133.277C531.873 141.379 529.31 151.384 529.31 163.29V227.781H508.97V101.279H526.581L529.31 120.378C532.948 114.591 537.66 109.961 543.448 106.488C549.236 103.015 557.256 101.279 567.508 101.279H573.213ZM589.332 65.8087H609.672V101.279H641.669V119.882H609.672V194.543C609.672 199.835 610.664 203.638 612.648 205.953C614.798 208.103 618.436 209.178 623.562 209.178H645.638V227.781H622.322C610.416 227.781 601.9 225.135 596.774 219.844C591.813 214.552 589.332 206.201 589.332 194.791V65.8087ZM644.933 101.279H666.761L704.959 204.713L742.91 101.279H764.242L716.865 227.781H692.309L644.933 101.279ZM787.114 52.4144C790.917 52.4144 794.059 53.6546 796.54 56.1351C799.02 58.6155 800.26 61.7574 800.26 65.5607C800.26 69.364 799.02 72.5059 796.54 74.9864C794.059 77.4668 790.917 78.707 787.114 78.707C783.311 78.707 780.169 77.4668 777.688 74.9864C775.208 72.5059 773.968 69.364 773.968 65.5607C773.968 61.7574 775.208 58.6155 777.688 56.1351C780.169 53.6546 783.311 52.4144 787.114 52.4144ZM776.944 101.279H797.284V227.781H776.944V101.279ZM935.528 184.126C932.882 198.181 926.681 209.261 916.924 217.363C907.168 225.301 894.766 229.27 879.718 229.27C867.481 229.27 856.732 226.541 847.472 221.084C838.212 215.627 831.018 208.02 825.892 198.264C820.766 188.342 818.203 177.015 818.203 164.282C818.203 151.549 820.766 140.305 825.892 130.548C831.184 120.792 838.542 113.268 847.968 107.976C857.394 102.519 868.225 99.7907 880.462 99.7907C895.344 99.7907 907.581 103.759 917.172 111.697C926.929 119.634 933.047 130.548 935.528 144.439H914.94C912.956 136.336 908.821 129.887 902.538 125.091C896.254 120.296 888.647 117.898 879.718 117.898C867.646 117.898 857.807 122.197 850.201 130.796C842.759 139.395 839.039 150.557 839.039 164.282C839.039 178.173 842.759 189.5 850.201 198.264C857.807 206.863 867.646 211.162 879.718 211.162C888.978 211.162 896.75 208.765 903.034 203.969C909.318 199.174 913.369 192.559 915.188 184.126H935.528ZM949.433 164.53C949.433 151.632 951.914 140.305 956.875 130.548C962.001 120.792 969.112 113.268 978.207 107.976C987.301 102.519 997.719 99.7907 1009.46 99.7907C1021.04 99.7907 1031.29 102.188 1040.22 106.984C1049.15 111.78 1056.17 118.725 1061.3 127.82C1066.43 136.915 1069.16 147.58 1069.49 159.817C1069.49 161.636 1069.32 164.53 1068.99 168.499H970.765V170.235C971.096 182.637 974.899 192.559 982.175 200C989.451 207.442 998.96 211.162 1010.7 211.162C1019.8 211.162 1027.48 208.93 1033.77 204.465C1040.22 199.835 1044.52 193.469 1046.67 185.366H1067.25C1064.77 198.264 1058.57 208.847 1048.65 217.115C1038.73 225.218 1026.58 229.27 1012.19 229.27C999.621 229.27 988.624 226.624 979.199 221.332C969.773 215.875 962.414 208.268 957.123 198.512C951.997 188.59 949.433 177.263 949.433 164.53ZM1048.4 151.632C1047.41 140.883 1043.36 132.532 1036.25 126.579C1029.3 120.626 1020.46 117.65 1009.71 117.65C1000.12 117.65 991.684 120.792 984.408 127.076C977.132 133.359 972.998 141.545 972.005 151.632H1048.4Z" fill="black"/>
<path d="M127.635 174.326C133.522 164.17 148.245 164.17 154.132 174.326L159.719 183.965C160.493 185.301 160.865 186.827 160.874 188.371C161.004 210.43 172.494 231.846 192.963 243.677V243.677C194.265 244.43 195.377 245.48 196.132 246.781L202.354 257.515C204.705 261.572 203.228 266.793 198.961 268.737C181.2 276.828 161.461 281.337 140.668 281.337C120.016 281.337 100.402 276.89 82.7339 268.902C78.4534 266.967 76.9657 261.736 79.3219 257.672L87.8544 242.954C87.9211 242.839 88.0175 242.744 88.1325 242.678V242.678C107.995 231.197 119.401 210.692 120.179 189.332C120.232 187.881 120.605 186.455 121.333 185.199L127.635 174.326Z" fill="black"/>
<path d="M24.1683 144.891C24.2984 144.892 24.4258 144.927 24.5384 144.992V144.992C44.3977 156.471 67.8367 156.109 86.705 146.108C87.9901 145.427 89.4145 145.036 90.8691 145.039L103.421 145.068C115.142 145.094 122.516 157.859 116.67 168.05L111.125 177.713C110.356 179.053 109.22 180.139 107.887 180.921C88.8693 192.067 76.0938 212.737 76.0939 236.394V236.394C76.0939 237.901 75.7399 239.393 74.9896 240.7L68.8412 251.417C66.4835 255.526 61.1474 256.838 57.3312 254.03C25.7257 230.777 4.19703 194.636 0.504436 153.36C0.0881659 148.707 3.86663 144.845 8.53823 144.856L24.1683 144.891Z" fill="black"/>
<path d="M272.803 144.772C277.473 144.762 281.251 148.62 280.838 153.272C277.18 194.444 255.777 230.514 224.324 253.792C220.508 256.615 215.158 255.307 212.796 251.19L204.525 236.771C204.459 236.656 204.426 236.526 204.426 236.394V236.394C204.426 213.437 192.394 193.294 174.304 181.937C173.073 181.164 172.024 180.126 171.301 178.865L165.05 167.967C159.204 157.776 166.576 145.012 178.297 144.985L189.425 144.96C190.972 144.957 192.482 145.399 193.826 146.164C212.976 157.077 237.242 157.821 257.708 145.991V145.991C259.008 145.24 260.471 144.801 261.974 144.797L272.803 144.772Z" fill="black"/>
<path d="M77.1452 40.6364C77.2121 40.7531 77.2474 40.8853 77.2474 41.0199V41.0199C77.2475 63.975 89.2762 84.1162 107.364 95.4737C108.594 96.2462 109.643 97.2837 110.366 98.5436L116.622 109.445C122.468 119.636 115.094 132.402 103.373 132.428L92.2461 132.452C90.6996 132.455 89.1895 132.013 87.8458 131.248C68.6962 120.335 44.4286 119.592 23.9625 131.422V131.422C22.6615 132.174 21.197 132.611 19.6943 132.614L8.93695 132.638C4.17736 132.649 0.366831 128.646 0.92779 123.92C5.70766 83.6466 27.5079 48.5901 58.9391 26.1396C62.759 23.4111 68.0268 24.7442 70.363 28.8159L77.1452 40.6364Z" fill="black"/>
<path d="M211.139 28.9374C213.478 24.8613 218.753 23.5303 222.573 26.2675C253.886 48.7064 275.603 83.6708 280.395 123.831C280.959 128.559 277.148 132.565 272.386 132.554L257.5 132.521C257.371 132.52 257.245 132.486 257.133 132.422V132.422C237.273 120.942 213.832 121.302 194.963 131.304C193.678 131.985 192.254 132.376 190.8 132.373L178.25 132.346C166.529 132.319 159.155 119.553 165.001 109.362L170.547 99.6965C171.316 98.3561 172.452 97.2692 173.785 96.4877C192.802 85.3418 205.578 64.6759 205.578 41.0199V41.0199C205.578 39.5101 205.931 38.0165 206.682 36.7069L211.139 28.9374Z" fill="black"/>
<path d="M140.668 0C160.687 6.20792e-05 179.729 4.17843 196.97 11.7098C201.311 13.6059 202.846 18.8805 200.47 22.9785L193.815 34.4593C193.749 34.5735 193.653 34.6679 193.539 34.7339V34.7339C173.677 46.2146 162.27 66.72 161.491 88.0799C161.438 89.5307 161.065 90.9567 160.337 92.2127L154.035 103.086C148.148 113.242 133.427 113.242 127.539 103.086L121.952 93.4472C121.177 92.1113 120.805 90.5849 120.796 89.0408C120.665 66.9814 109.178 45.5661 88.7085 33.7345V33.7345C87.403 32.9799 86.2885 31.9272 85.5323 30.6227L81.053 22.8957C78.675 18.7937 80.2157 13.5136 84.5637 11.6224C101.753 4.14561 120.726 0 140.668 0Z" fill="black"/>
</svg>
