<svg width="1027" height="268" viewBox="0 0 1027 268" fill="none" xmlns="http://www.w3.org/2000/svg">
<path d="M320.588 183.332L383.585 18.1709H407.887L470.648 183.332H448.705L431.246 138.739H359.282L341.823 183.332H320.588ZM365.417 120.099H425.111L395.146 40.5856L365.417 120.099ZM545.255 63.0004V81.8759H535.581C524.098 81.8759 515.84 85.7297 510.807 93.4372C505.931 101.145 503.492 110.661 503.492 121.986V183.332H484.145V63.0004H500.897L503.492 81.1681C506.953 75.6627 511.436 71.2584 516.941 67.9552C522.447 64.652 530.076 63.0004 539.828 63.0004H545.255ZM560.587 29.2603H579.935V63.0004H610.372V80.6962H579.935V151.715C579.935 156.749 580.879 160.367 582.766 162.569C584.811 164.614 588.271 165.636 593.148 165.636H614.147V183.332H591.968C580.643 183.332 572.542 180.815 567.666 175.782C562.947 170.748 560.587 162.805 560.587 151.951V29.2603ZM613.476 63.0004H634.239L670.574 161.389L706.674 63.0004H726.965L681.9 183.332H658.541L613.476 63.0004ZM748.722 16.5193C752.339 16.5193 755.328 17.699 757.688 20.0585C760.047 22.4179 761.227 25.4065 761.227 29.0244C761.227 32.6422 760.047 35.6308 757.688 37.9902C755.328 40.3497 752.339 41.5294 748.722 41.5294C745.104 41.5294 742.115 40.3497 739.756 37.9902C737.396 35.6308 736.217 32.6422 736.217 29.0244C736.217 25.4065 737.396 22.4179 739.756 20.0585C742.115 17.699 745.104 16.5193 748.722 16.5193ZM739.048 63.0004H758.395V183.332H739.048V63.0004ZM889.896 141.806C887.379 155.176 881.48 165.715 872.2 173.422C862.919 180.973 851.122 184.748 836.808 184.748C825.168 184.748 814.944 182.152 806.135 176.962C797.327 171.771 790.484 164.535 785.608 155.255C780.732 145.817 778.294 135.042 778.294 122.93C778.294 110.818 780.732 100.122 785.608 90.8418C790.642 81.5613 797.641 74.4043 806.607 69.3709C815.573 64.1801 825.876 61.5847 837.516 61.5847C851.673 61.5847 863.313 65.3598 872.436 72.91C881.716 80.4602 887.536 90.8418 889.896 104.055H870.312C868.425 96.3472 864.492 90.2126 858.515 85.651C852.538 81.0894 845.302 78.8086 836.808 78.8086C825.326 78.8086 815.966 82.8983 808.731 91.0777C801.652 99.2572 798.113 109.875 798.113 122.93C798.113 136.143 801.652 146.918 808.731 155.255C815.966 163.434 825.326 167.524 836.808 167.524C845.617 167.524 853.01 165.243 858.987 160.681C864.964 156.12 868.818 149.828 870.548 141.806H889.896ZM903.123 123.166C903.123 110.897 905.483 100.122 910.202 90.8418C915.078 81.5613 921.842 74.4043 930.493 69.3709C939.144 64.1801 949.054 61.5847 960.222 61.5847C971.233 61.5847 980.985 63.8655 989.479 68.4271C997.973 72.9887 1004.66 79.5951 1009.53 88.2464C1014.41 96.8977 1017.01 107.043 1017.32 118.683C1017.32 120.414 1017.16 123.166 1016.85 126.941H923.415V128.593C923.729 140.39 927.347 149.828 934.268 156.906C941.189 163.985 950.234 167.524 961.402 167.524C970.053 167.524 977.367 165.4 983.344 161.153C989.479 156.749 993.569 150.693 995.614 142.986H1015.2C1012.84 155.255 1006.94 165.322 997.501 173.186C988.063 180.894 976.502 184.748 962.817 184.748C950.863 184.748 940.403 182.231 931.437 177.197C922.471 172.007 915.471 164.771 910.438 155.491C905.561 146.053 903.123 135.278 903.123 123.166ZM997.265 110.897C996.321 100.673 992.468 92.7294 985.704 87.0667C979.097 81.404 970.682 78.5727 960.458 78.5727C951.335 78.5727 943.313 81.5613 936.392 87.5386C929.47 93.5158 925.538 101.302 924.594 110.897H997.265Z" fill="black"/>
<path d="M322.072 246.176L328.408 213.536H339.016C345.16 213.536 348.952 216.608 348.952 222.08C348.952 228.56 343.624 233.84 335.224 233.84H327.688L325.288 246.176H322.072ZM338.488 216.176H331.096L328.216 231.152H335.416C341.8 231.152 345.544 227.12 345.544 222.08C345.544 218.432 342.952 216.176 338.488 216.176ZM349.661 246.176L354.605 220.784H357.677L356.861 225.056C359.165 221.84 362.189 220.256 365.309 220.256C366.605 220.256 367.469 220.448 367.853 220.784L367.325 223.616C366.701 223.376 365.789 223.232 364.829 223.232C359.693 223.232 356.477 227.024 355.613 231.584L352.781 246.176H349.661ZM389.044 237.92C386.404 244.112 381.844 246.704 376.324 246.704C370.564 246.704 366.916 243.152 366.916 236.912C366.916 228.272 372.58 220.256 380.788 220.256C386.98 220.256 390.148 223.904 390.148 229.616C390.148 230.72 390.004 231.92 389.812 233.12L389.668 233.984H370.324C370.18 234.848 370.132 235.712 370.132 236.576C370.132 241.472 372.484 244.016 376.756 244.016C380.74 244.016 384.052 242 385.828 237.92H389.044ZM380.596 222.944C375.844 222.944 372.34 226.784 370.852 231.584H386.884C386.932 231.008 386.98 230.432 386.98 229.856C386.98 225.44 384.772 222.944 380.596 222.944ZM416.662 229.376H413.542C413.542 225.104 411.094 222.944 407.302 222.944C401.014 222.944 396.886 229.712 396.886 236.816C396.886 241.376 399.382 244.016 403.318 244.016C407.158 244.016 410.278 241.952 412.102 237.776H415.174C412.87 243.92 408.214 246.704 403.078 246.704C397.366 246.704 393.67 243.152 393.67 236.912C393.67 228.32 399.286 220.256 407.542 220.256C413.206 220.256 416.614 223.664 416.662 229.376ZM424.526 217.088L425.582 211.616H428.702L427.646 217.088H424.526ZM418.862 246.176L423.806 220.784H426.878L421.982 246.176H418.862ZM434.642 227.648C434.642 234.224 449.09 229.424 449.09 238.352C449.09 242.576 444.962 246.704 438.194 246.704C431.858 246.704 428.546 243.056 428.498 237.92H431.618C431.666 241.376 433.634 244.208 438.338 244.208C443.186 244.208 445.874 241.616 445.874 238.736C445.874 232.112 431.57 237.104 431.57 227.936C431.57 223.808 435.266 220.256 441.362 220.256C446.69 220.256 450.242 222.992 450.242 229.04H447.122C447.122 224.672 444.962 222.8 441.026 222.8C436.946 222.8 434.642 225.056 434.642 227.648ZM462.764 217.088H460.844C461.66 212.72 463.964 211.616 465.644 211.616C469.004 211.616 469.388 215.024 471.404 215.024C472.316 215.024 473.42 214.448 474.044 211.616H475.964C475.1 215.984 472.892 217.088 471.164 217.088C467.852 217.088 467.468 213.728 465.404 213.728C464.492 213.728 463.388 214.304 462.764 217.088ZM458.396 229.04H455.276C456.908 223.52 461.18 220.256 467.132 220.256C473.228 220.256 475.676 223.28 475.676 227.552C475.676 228.416 475.58 229.328 475.388 230.24L473.468 240.224C473.132 241.856 472.988 243.104 472.988 244.16C472.988 244.928 473.084 245.552 473.276 246.176H469.964C469.82 245.696 469.772 245.168 469.772 244.544C469.772 243.68 469.916 242.624 470.06 241.616C467.468 244.928 463.82 246.704 460.22 246.704C455.468 246.704 452.54 244.352 452.54 240.224C452.54 236.528 454.892 233.936 458.78 232.64C462.668 231.344 466.556 231.056 472.124 231.056L472.316 230.192C472.46 229.328 472.508 228.56 472.508 227.888C472.508 224.672 470.732 222.944 466.748 222.944C462.428 222.944 459.74 225.296 458.396 229.04ZM455.756 239.888C455.756 242.624 457.676 244.016 460.748 244.016C465.788 244.016 470.396 239.888 471.308 235.184H471.356L471.692 233.408C459.26 233.456 455.756 235.952 455.756 239.888ZM489.519 246.704C483.615 246.704 480.063 243.104 480.063 236.912C480.063 228.176 485.535 220.256 494.031 220.256C499.887 220.256 503.439 223.856 503.439 230.048C503.439 238.736 497.967 246.704 489.519 246.704ZM489.855 244.016C496.191 244.016 500.223 237.104 500.223 230.144C500.223 225.488 497.919 222.944 493.695 222.944C487.359 222.944 483.279 229.856 483.279 236.816C483.279 241.424 485.583 244.016 489.855 244.016ZM524.484 246.704C519.156 246.704 516.18 243.056 516.18 237.2C516.18 228.704 521.652 220.256 529.716 220.256C533.028 220.256 535.38 221.888 536.58 224.864L537.348 220.784H540.468L533.46 256.736H530.34L533.22 242C530.916 244.88 527.796 246.704 524.484 246.704ZM525.156 244.016C531.444 244.016 535.236 236.288 535.236 229.808C535.236 225.44 533.172 222.944 529.428 222.944C523.716 222.944 519.396 229.856 519.396 237.056C519.396 241.52 521.412 244.016 525.156 244.016ZM560.93 235.952L563.906 220.784H567.026L562.082 246.176H558.962L559.73 242.24C557.426 245.168 554.354 246.704 551.186 246.704C546.482 246.704 543.986 244.256 543.986 239.888C543.986 238.976 544.082 238.064 544.274 237.104L547.442 220.784H550.514L547.394 237.152C547.202 237.92 547.106 238.592 547.106 239.264C547.106 242.192 548.642 244.016 552.05 244.016C556.706 244.016 560.21 239.792 560.93 235.952ZM591.771 237.92C589.131 244.112 584.571 246.704 579.051 246.704C573.291 246.704 569.643 243.152 569.643 236.912C569.643 228.272 575.307 220.256 583.515 220.256C589.707 220.256 592.875 223.904 592.875 229.616C592.875 230.72 592.731 231.92 592.539 233.12L592.395 233.984H573.051C572.907 234.848 572.859 235.712 572.859 236.576C572.859 241.472 575.211 244.016 579.483 244.016C583.467 244.016 586.779 242 588.555 237.92H591.771ZM583.323 222.944C578.571 222.944 575.067 226.784 573.579 231.584H589.611C589.659 231.008 589.707 230.432 589.707 229.856C589.707 225.44 587.499 222.944 583.323 222.944ZM606.96 239.216L610.032 223.28H606.24L606.72 220.784H610.512L611.664 214.928H614.784L613.68 220.784H619.344L618.864 223.28H613.2L610.128 239.12C609.984 239.888 609.888 240.56 609.888 241.136C609.888 243.152 610.896 244.064 613.68 244.064H614.736L614.304 246.32C613.872 246.464 613.056 246.56 612.144 246.56C608.4 246.56 606.672 245.216 606.672 241.904C606.672 241.184 606.768 240.272 606.96 239.216ZM618.343 246.176L623.287 220.784H626.359L625.543 225.056C627.847 221.84 630.871 220.256 633.991 220.256C635.287 220.256 636.151 220.448 636.535 220.784L636.007 223.616C635.383 223.376 634.471 223.232 633.511 223.232C628.375 223.232 625.159 227.024 624.295 231.584L621.463 246.176H618.343ZM640.545 229.04H637.425C639.057 223.52 643.329 220.256 649.281 220.256C655.377 220.256 657.825 223.28 657.825 227.552C657.825 228.416 657.729 229.328 657.537 230.24L655.617 240.224C655.281 241.856 655.137 243.104 655.137 244.16C655.137 244.928 655.233 245.552 655.425 246.176H652.113C651.969 245.696 651.921 245.168 651.921 244.544C651.921 243.68 652.065 242.624 652.209 241.616C649.617 244.928 645.969 246.704 642.369 246.704C637.617 246.704 634.689 244.352 634.689 240.224C634.689 236.528 637.041 233.936 640.929 232.64C644.817 231.344 648.705 231.056 654.273 231.056L654.465 230.192C654.609 229.328 654.657 228.56 654.657 227.888C654.657 224.672 652.881 222.944 648.897 222.944C644.577 222.944 641.889 225.296 640.545 229.04ZM637.905 239.888C637.905 242.624 639.825 244.016 642.897 244.016C647.937 244.016 652.545 239.888 653.457 235.184H653.505L653.841 233.408C641.409 233.456 637.905 235.952 637.905 239.888ZM661.539 246.176L666.483 220.784H669.555L668.787 224.816C671.043 221.84 674.163 220.256 677.619 220.256C682.515 220.256 684.867 223.04 684.867 227.264C684.867 228.032 684.771 228.944 684.579 229.808L681.363 246.176H678.291L681.459 229.856C681.603 229.136 681.651 228.416 681.651 227.792C681.651 224.816 680.163 222.896 676.611 222.896C671.907 222.896 668.355 227.168 667.587 231.008L664.659 246.176H661.539ZM694.054 227.648C694.054 234.224 708.502 229.424 708.502 238.352C708.502 242.576 704.374 246.704 697.606 246.704C691.27 246.704 687.958 243.056 687.91 237.92H691.03C691.078 241.376 693.046 244.208 697.75 244.208C702.598 244.208 705.286 241.616 705.286 238.736C705.286 232.112 690.982 237.104 690.982 227.936C690.982 223.808 694.678 220.256 700.774 220.256C706.102 220.256 709.654 222.992 709.654 229.04H706.534C706.534 224.672 704.374 222.8 700.438 222.8C696.358 222.8 694.054 225.056 694.054 227.648ZM713.056 223.28L713.536 220.784H717.328L717.808 218.384C718.864 213.152 721.072 211.232 725.68 211.232C726.496 211.232 727.216 211.328 727.6 211.472L727.12 213.728H726.64C722.704 213.728 721.6 215.072 720.88 218.816L720.496 220.784H725.776L725.296 223.28H720.016L715.552 246.176H712.432L716.848 223.28H713.056ZM734.306 246.704C728.402 246.704 724.85 243.104 724.85 236.912C724.85 228.176 730.322 220.256 738.818 220.256C744.674 220.256 748.226 223.856 748.226 230.048C748.226 238.736 742.754 246.704 734.306 246.704ZM734.642 244.016C740.978 244.016 745.01 237.104 745.01 230.144C745.01 225.488 742.706 222.944 738.482 222.944C732.146 222.944 728.066 229.856 728.066 236.816C728.066 241.424 730.37 244.016 734.642 244.016ZM750.932 246.176L755.876 220.784H758.948L758.132 225.056C760.436 221.84 763.46 220.256 766.58 220.256C767.876 220.256 768.74 220.448 769.124 220.784L768.596 223.616C767.972 223.376 767.06 223.232 766.1 223.232C760.964 223.232 757.748 227.024 756.884 231.584L754.052 246.176H750.932ZM767.983 246.176L772.927 220.784H775.999L775.279 224.576C777.391 221.744 780.223 220.256 783.391 220.256C787.039 220.256 789.151 222.224 789.727 225.248C791.983 221.984 795.199 220.256 798.655 220.256C802.975 220.256 805.279 223.04 805.279 227.216C805.279 228.032 805.183 228.896 804.991 229.808L801.823 246.176H798.703L801.871 229.856C802.063 229.088 802.111 228.32 802.111 227.648C802.111 224.768 800.719 222.896 797.695 222.896C793.471 222.896 790.351 226.928 789.439 230.72L786.463 246.176H783.343L786.511 229.856C786.703 229.088 786.751 228.32 786.751 227.648C786.751 224.768 785.359 222.896 782.335 222.896C778.015 222.896 774.799 227.168 774.031 231.008L771.103 246.176H767.983ZM814.513 229.04H811.393C813.025 223.52 817.297 220.256 823.249 220.256C829.345 220.256 831.793 223.28 831.793 227.552C831.793 228.416 831.697 229.328 831.505 230.24L829.585 240.224C829.249 241.856 829.105 243.104 829.105 244.16C829.105 244.928 829.201 245.552 829.393 246.176H826.081C825.937 245.696 825.889 245.168 825.889 244.544C825.889 243.68 826.033 242.624 826.177 241.616C823.585 244.928 819.937 246.704 816.337 246.704C811.585 246.704 808.657 244.352 808.657 240.224C808.657 236.528 811.009 233.936 814.897 232.64C818.785 231.344 822.673 231.056 828.241 231.056L828.433 230.192C828.577 229.328 828.625 228.56 828.625 227.888C828.625 224.672 826.849 222.944 822.865 222.944C818.545 222.944 815.857 225.296 814.513 229.04ZM811.873 239.888C811.873 242.624 813.793 244.016 816.865 244.016C821.905 244.016 826.513 239.888 827.425 235.184H827.473L827.809 233.408C815.377 233.456 811.873 235.952 811.873 239.888ZM850.678 227.648C850.678 234.224 865.126 229.424 865.126 238.352C865.126 242.576 860.998 246.704 854.23 246.704C847.894 246.704 844.582 243.056 844.534 237.92H847.654C847.702 241.376 849.67 244.208 854.374 244.208C859.222 244.208 861.91 241.616 861.91 238.736C861.91 232.112 847.606 237.104 847.606 227.936C847.606 223.808 851.302 220.256 857.398 220.256C862.726 220.256 866.278 222.992 866.278 229.04H863.158C863.158 224.672 860.998 222.8 857.062 222.8C852.982 222.8 850.678 225.056 850.678 227.648ZM878.801 246.704C872.897 246.704 869.345 243.104 869.345 236.912C869.345 228.176 874.817 220.256 883.313 220.256C889.169 220.256 892.721 223.856 892.721 230.048C892.721 238.736 887.249 246.704 878.801 246.704ZM879.137 244.016C885.473 244.016 889.505 237.104 889.505 230.144C889.505 225.488 887.201 222.944 882.977 222.944C876.641 222.944 872.561 229.856 872.561 236.816C872.561 241.424 874.865 244.016 879.137 244.016ZM895.427 246.176L900.371 220.784H903.443L902.627 225.056C904.931 221.84 907.955 220.256 911.075 220.256C912.371 220.256 913.235 220.448 913.619 220.784L913.091 223.616C912.467 223.376 911.555 223.232 910.595 223.232C905.459 223.232 902.243 227.024 901.379 231.584L898.547 246.176H895.427ZM912.478 246.176L917.422 220.784H920.494L919.678 225.056C921.982 221.84 925.006 220.256 928.126 220.256C929.422 220.256 930.286 220.448 930.67 220.784L930.142 223.616C929.518 223.376 928.606 223.232 927.646 223.232C922.51 223.232 919.294 227.024 918.43 231.584L915.598 246.176H912.478ZM935.193 217.088L936.249 211.616H939.369L938.313 217.088H935.193ZM929.529 246.176L934.473 220.784H937.545L932.649 246.176H929.529ZM945.309 227.648C945.309 234.224 959.757 229.424 959.757 238.352C959.757 242.576 955.629 246.704 948.861 246.704C942.525 246.704 939.213 243.056 939.165 237.92H942.285C942.333 241.376 944.301 244.208 949.005 244.208C953.853 244.208 956.541 241.616 956.541 238.736C956.541 232.112 942.237 237.104 942.237 227.936C942.237 223.808 945.933 220.256 952.029 220.256C957.357 220.256 960.909 222.992 960.909 229.04H957.789C957.789 224.672 955.629 222.8 951.693 222.8C947.613 222.8 945.309 225.056 945.309 227.648ZM973.432 246.704C967.528 246.704 963.976 243.104 963.976 236.912C963.976 228.176 969.448 220.256 977.944 220.256C983.8 220.256 987.352 223.856 987.352 230.048C987.352 238.736 981.88 246.704 973.432 246.704ZM973.768 244.016C980.104 244.016 984.136 237.104 984.136 230.144C984.136 225.488 981.832 222.944 977.608 222.944C971.272 222.944 967.192 229.856 967.192 236.816C967.192 241.424 969.496 244.016 973.768 244.016ZM995.818 227.648C995.818 234.224 1010.27 229.424 1010.27 238.352C1010.27 242.576 1006.14 246.704 999.37 246.704C993.034 246.704 989.722 243.056 989.674 237.92H992.794C992.842 241.376 994.81 244.208 999.514 244.208C1004.36 244.208 1007.05 241.616 1007.05 238.736C1007.05 232.112 992.746 237.104 992.746 227.936C992.746 223.808 996.442 220.256 1002.54 220.256C1007.87 220.256 1011.42 222.992 1011.42 229.04H1008.3C1008.3 224.672 1006.14 222.8 1002.2 222.8C998.122 222.8 995.818 225.056 995.818 227.648Z" fill="black"/>
<path d="M121.409 165.823C127.009 156.162 141.014 156.162 146.614 165.823L151.928 174.991C152.664 176.262 153.018 177.714 153.027 179.182C153.151 200.166 164.08 220.536 183.551 231.791V231.791C184.789 232.507 185.847 233.506 186.564 234.743L192.483 244.954C194.72 248.813 193.315 253.779 189.256 255.628C172.361 263.325 153.585 267.613 133.807 267.614C114.162 267.614 95.5049 263.384 78.6983 255.786C74.6265 253.945 73.2115 248.969 75.4526 245.103L83.569 231.103C83.6324 230.993 83.7241 230.904 83.8335 230.84V230.84C102.727 219.92 113.577 200.415 114.317 180.097C114.367 178.717 114.722 177.36 115.414 176.165L121.409 165.823Z" fill="black"/>
<path d="M22.9894 137.824C23.1132 137.824 23.2343 137.857 23.3415 137.919V137.919C42.2321 148.838 64.5277 148.495 82.4756 138.981C83.6981 138.333 85.053 137.961 86.4366 137.964L98.3767 137.992C109.526 138.017 116.54 150.159 110.979 159.853L105.704 169.044C104.973 170.319 103.892 171.352 102.624 172.096C84.5344 182.698 72.3821 202.36 72.3821 224.863V224.863C72.3821 226.297 72.0454 227.715 71.3317 228.959L65.4832 239.153C63.2405 243.062 58.1647 244.31 54.5347 241.639C24.4709 219.52 3.9923 185.142 0.47983 145.879C0.0838647 141.453 3.67803 137.78 8.12175 137.79L22.9894 137.824Z" fill="black"/>
<path d="M259.496 137.711C263.938 137.7 267.532 141.371 267.139 145.795C263.66 184.959 243.3 219.27 213.382 241.412C209.752 244.098 204.663 242.854 202.417 238.937L194.548 225.222C194.486 225.112 194.454 224.989 194.454 224.863V224.863C194.454 203.026 183.009 183.866 165.802 173.063C164.631 172.327 163.633 171.34 162.945 170.14L156.999 159.774C151.438 150.08 158.451 137.939 169.6 137.913L180.185 137.889C181.657 137.886 183.093 138.306 184.372 139.035C202.587 149.415 225.669 150.122 245.137 138.87V138.87C246.374 138.155 247.766 137.738 249.195 137.734L259.496 137.711Z" fill="black"/>
<path d="M73.3822 38.6542C73.4458 38.7652 73.4794 38.891 73.4794 39.019V39.019C73.4795 60.8544 84.9214 80.0131 102.127 90.8166C103.297 91.5515 104.295 92.5383 104.982 93.7368L110.933 104.106C116.495 113.8 109.48 125.943 98.3306 125.968L87.7465 125.991C86.2754 125.994 84.8389 125.574 83.5608 124.846C65.3453 114.466 42.2614 113.759 22.7936 125.012V125.012C21.5561 125.727 20.163 126.142 18.7336 126.146L8.50101 126.168C3.97359 126.178 0.348938 122.371 0.882533 117.875C5.42924 79.5665 26.1661 46.22 56.0641 24.8645C59.6977 22.2691 64.7085 23.5372 66.9308 27.4103L73.3822 38.6542Z" fill="black"/>
<path d="M200.84 27.5259C203.064 23.6486 208.083 22.3825 211.716 24.9862C241.501 46.3305 262.159 79.5894 266.718 117.791C267.254 122.288 263.629 126.098 259.1 126.088L244.939 126.056C244.817 126.056 244.697 126.023 244.591 125.962V125.962C225.699 115.043 203.401 115.385 185.453 124.899C184.231 125.547 182.876 125.919 181.493 125.916L169.555 125.89C158.406 125.865 151.392 113.722 156.953 104.028L162.228 94.8334C162.959 93.5584 164.04 92.5245 165.308 91.7812C183.397 81.1789 195.55 61.5211 195.55 39.019V39.019C195.55 37.5829 195.886 36.1621 196.6 34.9164L200.84 27.5259Z" fill="black"/>
<path d="M133.807 0C152.849 5.9051e-05 170.962 3.97461 187.362 11.1386C191.491 12.9422 192.951 17.9596 190.691 21.8576L184.361 32.7785C184.298 32.8871 184.207 32.9768 184.099 33.0396V33.0396C165.205 43.9604 154.354 63.4655 153.614 83.7835C153.563 85.1635 153.209 86.52 152.516 87.7147L146.522 98.0574C140.922 107.718 126.918 107.718 121.318 98.0574L116.003 88.889C115.266 87.6182 114.913 86.1663 114.904 84.6975C114.78 63.7141 103.852 43.3434 84.3814 32.089V32.089C83.1396 31.3712 82.0795 30.3698 81.3602 29.1289L77.0993 21.7789C74.8373 17.8769 76.3029 12.8545 80.4388 11.0554C96.7892 3.94339 114.838 0 133.807 0Z" fill="black"/>
</svg>
